2Varta-SemiBold205.ufo
<glyph name="two" format="1">
  <advance width="797"/>
  <unicode hex="0032"/>
  <outline>
    <contour>
      <point x="249" y="1243"/>
      <point x="167" y="1232"/>
      <point x="57" y="1208" type="curve"/>
      <point x="76" y="1080" type="line"/>
      <point x="161" y="1099"/>
      <point x="248" y="1111"/>
      <point x="331" y="1111" type="curve" smooth="yes"/>
      <point x="513" y="1111"/>
      <point x="553" y="1051"/>
      <point x="553" y="952" type="curve" smooth="yes"/>
      <point x="553" y="823"/>
      <point x="523" y="763"/>
      <point x="447" y="649" type="curve" smooth="yes"/>
      <point x="350" y="504"/>
      <point x="173" y="284"/>
      <point x="14" y="112" type="curve"/>
      <point x="25" y="0" type="line"/>
      <point x="722" y="0" type="line"/>
      <point x="722" y="129" type="line"/>
      <point x="209" y="129" type="line"/>
      <point x="261" y="189" type="line" smooth="yes"/>
      <point x="358" y="301"/>
      <point x="471" y="440"/>
      <point x="545" y="544" type="curve" smooth="yes"/>
      <point x="640" y="678"/>
      <point x="704" y="772"/>
      <point x="704" y="963" type="curve" smooth="yes"/>
      <point x="704" y="1166"/>
      <point x="569" y="1243"/>
      <point x="353" y="1243" type="curve" smooth="yes"/>
    </contour>
  </outline>
</glyph>
<glyph name="three" format="1">
  <advance width="849"/>
  <unicode hex="0033"/>
  <outline>
    <contour>
      <point x="287" y="1243"/>
      <point x="173" y="1233"/>
      <point x="77" y="1208" type="curve"/>
      <point x="92" y="1078" type="line"/>
      <point x="165" y="1100"/>
      <point x="260" y="1116"/>
      <point x="372" y="1116" type="curve" smooth="yes"/>
      <point x="517" y="1116"/>
      <point x="552" y="1065"/>
      <point x="552" y="929" type="curve" smooth="yes"/>
      <point x="552" y="744"/>
      <point x="350" y="717"/>
      <point x="205" y="710" type="curve"/>
      <point x="203" y="589" type="line"/>
      <point x="224" y="589"/>
      <point x="332" y="588"/>
      <point x="367" y="588" type="curve" smooth="yes"/>
      <point x="552" y="588"/>
      <point x="600" y="503"/>
      <point x="600" y="362" type="curve" smooth="yes"/>
      <point x="600" y="202"/>
      <point x="555" y="116"/>
      <point x="367" y="116" type="curve" smooth="yes"/>
      <point x="268" y="116"/>
      <point x="172" y="132"/>
      <point x="65" y="159" type="curve"/>
      <point x="35" y="33" type="line"/>
      <point x="119" y="7"/>
      <point x="241" y="-16"/>
      <point x="370" y="-16" type="curve" smooth="yes"/>
      <point x="624" y="-16"/>
      <point x="761" y="78"/>
      <point x="761" y="371" type="curve" smooth="yes"/>
      <point x="761" y="542"/>
      <point x="685" y="664"/>
      <point x="493" y="681" type="curve"/>
      <point x="493" y="685" type="line"/>
      <point x="642" y="725"/>
      <point x="705" y="834"/>
      <point x="705" y="960" type="curve" smooth="yes"/>
      <point x="705" y="1166"/>
      <point x="606" y="1243"/>
      <point x="387" y="1243" type="curve" smooth="yes"/>
    </contour>
  </outline>
</glyph>
<glyph name="five" format="1">
  <advance width="881"/>
  <unicode hex="0035"/>
  <outline>
    <contour>
      <point x="120" y="1227" type="line"/>
      <point x="120" y="649" type="line"/>
      <point x="242" y="661"/>
      <point x="347" y="668"/>
      <point x="423" y="668" type="curve" smooth="yes"/>
      <point x="578" y="668"/>
      <point x="620" y="592"/>
      <point x="620" y="442" type="curve" smooth="yes"/>
      <point x="620" y="400" type="line" smooth="yes"/>
      <point x="618" y="199"/>
      <point x="572" y="113"/>
      <point x="387" y="113" type="curve" smooth="yes"/>
      <point x="288" y="113"/>
      <point x="202" y="131"/>
      <point x="86" y="168" type="curve"/>
      <point x="59" y="43" type="line"/>
      <point x="143" y="7"/>
      <point x="261" y="-16"/>
      <point x="390" y="-16" type="curve" smooth="yes"/>
      <point x="644" y="-16"/>
      <point x="781" y="78"/>
      <point x="781" y="401" type="curve" smooth="yes"/>
      <point x="781" y="442" type="line" smooth="yes"/>
      <point x="777" y="647"/>
      <point x="716" y="789"/>
      <point x="469" y="789" type="curve" smooth="yes"/>
      <point x="399" y="789"/>
      <point x="338" y="787"/>
      <point x="262" y="778" type="curve"/>
      <point x="262" y="1097" type="line"/>
      <point x="735" y="1097" type="line"/>
      <point x="735" y="1227" type="line"/>
    </contour>
  </outline>
</glyph>
<glyph name="six" format="1">
  <advance width="1020"/>
  <unicode hex="0036"/>
  <outline>
    <contour>
      <point x="203" y="1243"/>
      <point x="133" y="1087"/>
      <point x="130" y="769" type="curve" smooth="yes"/>
      <point x="130" y="350" type="line" smooth="yes"/>
      <point x="130" y="96"/>
      <point x="242" y="-16"/>
      <point x="536" y="-16" type="curve" smooth="yes"/>
      <point x="875" y="-16"/>
      <point x="912" y="188"/>
      <point x="912" y="358" type="curve" smooth="yes"/>
      <point x="912" y="433" type="line" smooth="yes"/>
      <point x="912" y="623"/>
      <point x="884" y="779"/>
      <point x="595" y="779" type="curve" smooth="yes"/>
      <point x="471" y="779"/>
      <point x="356" y="740"/>
      <point x="282" y="696" type="curve"/>
      <point x="280" y="766" type="line"/>
      <point x="280" y="1071"/>
      <point x="353" y="1116"/>
      <point x="525" y="1116" type="curve" smooth="yes"/>
      <point x="648" y="1116"/>
      <point x="756" y="1085"/>
      <point x="825" y="1056" type="curve"/>
      <point x="869" y="1190" type="line"/>
      <point x="822" y="1217"/>
      <point x="695" y="1243"/>
      <point x="562" y="1243" type="curve" smooth="yes"/>
    </contour>
    <contour>
      <point x="729" y="644"/>
      <point x="761" y="608"/>
      <point x="761" y="403" type="curve" smooth="yes"/>
      <point x="761" y="358" type="line" smooth="yes"/>
      <point x="761" y="185"/>
      <point x="727" y="115"/>
      <point x="550" y="115" type="curve" smooth="yes"/>
      <point x="506" y="115" type="line" smooth="yes"/>
      <point x="305" y="115"/>
      <point x="282" y="204"/>
      <point x="282" y="389" type="curve" smooth="yes"/>
      <point x="282" y="578" type="line"/>
      <point x="342" y="610"/>
      <point x="450" y="644"/>
      <point x="564" y="644" type="curve" smooth="yes"/>
      <point x="585" y="644" type="line" smooth="yes"/>
    </contour>
  </outline>
</glyph>
<glyph name="seven" format="1">
  <advance width="717"/>
  <unicode hex="0037"/>
  <outline>
    <contour>
      <point x="4" y="1227" type="line"/>
      <point x="4" y="1097" type="line"/>
      <point x="546" y="1097" type="line"/>
      <point x="391" y="768"/>
      <point x="243" y="413"/>
      <point x="108" y="0" type="curve"/>
      <point x="262" y="0" type="line"/>
      <point x="390" y="393"/>
      <point x="534" y="772"/>
      <point x="705" y="1114" type="curve"/>
      <point x="705" y="1227" type="line"/>
    </contour>
  </outline>
</glyph>
<glyph name="nine" format="1">
  <advance width="1021"/>
  <unicode hex="0039"/>
  <outline>
    <contour>
      <point x="147" y="1243"/>
      <point x="108" y="1038"/>
      <point x="108" y="869" type="curve" smooth="yes"/>
      <point x="108" y="794" type="line" smooth="yes"/>
      <point x="108" y="603"/>
      <point x="136" y="448"/>
      <point x="427" y="448" type="curve" smooth="yes"/>
      <point x="552" y="448"/>
      <point x="666" y="485"/>
      <point x="740" y="533" type="curve"/>
      <point x="740" y="460" type="line" smooth="yes"/>
      <point x="740" y="156"/>
      <point x="661" y="113"/>
      <point x="467" y="113" type="curve" smooth="yes"/>
      <point x="368" y="113"/>
      <point x="245" y="151"/>
      <point x="180" y="176" type="curve"/>
      <point x="136" y="46" type="line"/>
      <point x="184" y="22"/>
      <point x="325" y="-16"/>
      <point x="473" y="-16" type="curve" smooth="yes"/>
      <point x="817" y="-16"/>
      <point x="889" y="140"/>
      <point x="891" y="458" type="curve" smooth="yes"/>
      <point x="891" y="877" type="line" smooth="yes"/>
      <point x="891" y="1131"/>
      <point x="780" y="1243"/>
      <point x="484" y="1243" type="curve" smooth="yes"/>
    </contour>
    <contour>
      <point x="716" y="1112"/>
      <point x="740" y="1023"/>
      <point x="740" y="837" type="curve" smooth="yes"/>
      <point x="740" y="649" type="line"/>
      <point x="679" y="615"/>
      <point x="570" y="581"/>
      <point x="458" y="581" type="curve" smooth="yes"/>
      <point x="436" y="581" type="line" smooth="yes"/>
      <point x="292" y="581"/>
      <point x="261" y="618"/>
      <point x="261" y="821" type="curve" smooth="yes"/>
      <point x="261" y="869" type="line" smooth="yes"/>
      <point x="261" y="1041"/>
      <point x="295" y="1112"/>
      <point x="472" y="1112" type="curve" smooth="yes"/>
      <point x="515" y="1112" type="line" smooth="yes"/>
    </contour>
  </outline>
</glyph>
<glyph name="anusvara-deva" format="1">
  <advance width="540"/>
  <unicode hex="0902"/>
  <outline>
    <contour>
      <point x="192" y="1645"/>
      <point x="157" y="1612"/>
      <point x="157" y="1534" type="curve" smooth="yes"/>
      <point x="157" y="1456"/>
      <point x="192" y="1424"/>
      <point x="270" y="1424" type="curve" smooth="yes"/>
      <point x="349" y="1424"/>
      <point x="383" y="1456"/>
      <point x="383" y="1534" type="curve" smooth="yes"/>
      <point x="383" y="1612"/>
      <point x="349" y="1645"/>
      <point x="270" y="1645" type="curve" smooth="yes"/>
    </contour>
    <contour>
      <point x="270" y="1167" type="move" name="_top"/>
    </contour>
  </outline>
</glyph>
<glyph name="aa-deva" format="1">
  <advance width="1952"/>
  <unicode hex="0906"/>
  <outline>
    <component base="a-deva"/>
    <component base="aaMatra-deva" xOffset="1393"/>
    <contour>
      <point x="1681" y="1167" type="move" name="top"/>
    </contour>
    <contour>
      <point x="1506" y="27" type="move" name="bottom"/>
    </contour>
  </outline>
</glyph>
<glyph name="rVocalic-deva" format="1">
  <advance width="1520"/>
  <unicode hex="090B"/>
  <outline>
    <contour>
      <point x="-18" y="1277" type="line"/>
      <point x="-18" y="1114" type="line"/>
      <point x="1529" y="1114" type="line"/>
      <point x="1529" y="1277" type="line"/>
    </contour>
    <contour>
      <point x="956" y="933" type="line"/>
      <point x="1048" y="788" type="line"/>
      <point x="1057" y="853" type="line"/>
      <point x="776" y="634" type="line"/>
      <point x="845" y="487" type="line"/>
      <point x="1195" y="763" type="line" smooth="yes"/>
      <point x="1250" y="794"/>
      <point x="1264" y="831"/>
      <point x="1264" y="866" type="curve" smooth="yes"/>
      <point x="1264" y="946"/>
      <point x="1174" y="993"/>
      <point x="1055" y="1020" type="curve"/>
    </contour>
    <contour>
      <point x="1161" y="108" type="line"/>
      <point x="1325" y="182"/>
      <point x="1403" y="298"/>
      <point x="1403" y="421" type="curve" smooth="yes"/>
      <point x="1403" y="547"/>
      <point x="1316" y="691"/>
      <point x="1136" y="864" type="curve"/>
      <point x="1048" y="787" type="line"/>
      <point x="1151" y="648"/>
      <point x="1220" y="535"/>
      <point x="1220" y="449" type="curve" smooth="yes"/>
      <point x="1220" y="380"/>
      <point x="1171" y="317"/>
      <point x="1058" y="258" type="curve"/>
    </contour>
    <contour>
      <point x="150" y="220" type="line"/>
      <point x="264" y="83" type="line"/>
      <point x="773" y="486" type="line"/>
      <point x="723" y="635" type="line"/>
    </contour>
    <contour>
      <point x="207" y="952"/>
      <point x="122" y="902"/>
      <point x="53" y="847" type="curve"/>
      <point x="146" y="693" type="line"/>
      <point x="226" y="748"/>
      <point x="282" y="775"/>
      <point x="334" y="775" type="curve" smooth="yes"/>
      <point x="427" y="775"/>
      <point x="507" y="701"/>
      <point x="680" y="517" type="curve"/>
      <point x="774" y="600" type="line"/>
      <point x="531" y="914"/>
      <point x="424" y="952"/>
      <point x="311" y="952" type="curve" smooth="yes"/>
    </contour>
    <contour>
      <point x="678" y="1151" type="line"/>
      <point x="678" y="2" type="line"/>
      <point x="867" y="2" type="line"/>
      <point x="867" y="1151" type="line"/>
    </contour>
    <contour>
      <point x="763" y="1167" type="move" name="top"/>
    </contour>
    <contour>
      <point x="763" y="27" type="move" name="bottom"/>
    </contour>
  </outline>
</glyph>
<glyph name="lVocalic-deva" format="1">
  <advance width="1296"/>
  <unicode hex="090C"/>
  <outline>
    <contour>
      <point x="690" y="937"/>
      <point x="570" y="781"/>
      <point x="570" y="575" type="curve" smooth="yes"/>
      <point x="570" y="534"/>
      <point x="574" y="493"/>
      <point x="588" y="455" type="curve"/>
      <point x="753" y="473" type="line"/>
      <point x="749" y="503"/>
      <point x="746" y="530"/>
      <point x="746" y="558" type="curve" smooth="yes"/>
      <point x="746" y="679"/>
      <point x="803" y="763"/>
      <point x="906" y="763" type="curve" smooth="yes"/>
      <point x="1014" y="763"/>
      <point x="1058" y="679"/>
      <point x="1058" y="563" type="curve" smooth="yes"/>
      <point x="1058" y="477"/>
      <point x="1047" y="403"/>
      <point x="988" y="275" type="curve"/>
      <point x="1030" y="330" type="line"/>
      <point x="848" y="261"/>
      <point x="775" y="157"/>
      <point x="775" y="50" type="curve"/>
      <point x="775" y="-77"/>
      <point x="874" y="-200"/>
      <point x="1051" y="-200" type="curve" smooth="yes"/>
      <point x="1159" y="-200"/>
      <point x="1264" y="-161"/>
      <point x="1342" y="-104" type="curve"/>
      <point x="1279" y="24" type="line"/>
      <point x="1213" y="-20"/>
      <point x="1135" y="-51"/>
      <point x="1063" y="-51" type="curve" smooth="yes"/>
      <point x="971" y="-51"/>
      <point x="947" y="1"/>
      <point x="947" y="49" type="curve" smooth="yes"/>
      <point x="947" y="119"/>
      <point x="1017" y="178"/>
      <point x="1154" y="227" type="curve"/>
      <point x="1210" y="346"/>
      <point x="1236" y="457"/>
      <point x="1236" y="556" type="curve" smooth="yes"/>
      <point x="1236" y="791"/>
      <point x="1120" y="937"/>
      <point x="898" y="937" type="curve" smooth="yes"/>
    </contour>
    <contour>
      <point x="-18" y="1277" type="line"/>
      <point x="-18" y="1114" type="line"/>
      <point x="1313" y="1114" type="line"/>
      <point x="1313" y="1277" type="line"/>
    </contour>
    <contour>
      <point x="872" y="1170" type="line"/>
      <point x="872" y="838" type="line"/>
      <point x="1062" y="838" type="line"/>
      <point x="1062" y="1170" type="line"/>
    </contour>
    <contour>
      <point x="171" y="935"/>
      <point x="59" y="814"/>
      <point x="59" y="600" type="curve" smooth="yes"/>
      <point x="59" y="339"/>
      <point x="220" y="132"/>
      <point x="310" y="26" type="curve"/>
      <point x="445" y="140" type="line"/>
      <point x="338" y="278"/>
      <point x="245" y="419"/>
      <point x="245" y="574" type="curve" smooth="yes"/>
      <point x="245" y="716"/>
      <point x="318" y="760"/>
      <point x="403" y="760" type="curve" smooth="yes"/>
      <point x="512" y="760"/>
      <point x="584" y="675"/>
      <point x="656" y="550" type="curve"/>
      <point x="679" y="675" type="line"/>
      <point x="606" y="860"/>
      <point x="504" y="935"/>
      <point x="360" y="935" type="curve" smooth="yes"/>
    </contour>
    <contour>
      <point x="883" y="1167" type="move" name="top"/>
    </contour>
    <contour>
      <point x="745" y="-61" type="move" name="bottom"/>
    </contour>
  </outline>
</glyph>
<glyph name="eShort-deva" format="1">
  <advance width="1049"/>
  <unicode hex="090E"/>
  <outline>
    <component base="e-deva"/>
    <component base="eShortMatra-deva" xOffset="555"/>
    <contour>
      <point x="126" y="292" type="move" name="top"/>
    </contour>
    <contour>
      <point x="126" y="7" type="move" name="bottom"/>
    </contour>
  </outline>
</glyph>
<glyph name="ai-deva" format="1">
  <advance width="1049"/>
  <unicode hex="0910"/>
  <outline>
    <component base="e-deva"/>
    <component base="eMatra-deva" xOffset="555"/>
    <contour>
      <point x="126" y="292" type="move" name="top"/>
    </contour>
    <contour>
      <point x="126" y="7" type="move" name="bottom"/>
    </contour>
  </outline>
</glyph>
<glyph name="nga-deva" format="1">
  <advance width="1158"/>
  <unicode hex="0919"/>
  <outline>
    <contour>
      <point x="858" y="1277" type="line"/>
      <point x="858" y="1114" type="line"/>
      <point x="1176" y="1114" type="line"/>
      <point x="1176" y="1277" type="line"/>
    </contour>
    <component base="dda-deva"/>
    <component base="anusvara-deva" xOffset="756" yOffset="-948"/>
    <contour>
      <point x="951" y="1167" type="move" name="top"/>
    </contour>
    <contour>
      <point x="546" y="-7" type="move" name="bottom"/>
    </contour>
    <contour>
      <point x="541" y="1167" type="move" name="topcandrabindu"/>
    </contour>
  </outline>
</glyph>
<glyph name="sha-deva" format="1">
  <advance width="1364"/>
  <unicode hex="0936"/>
  <outline>
    <contour>
      <point x="207" y="1298"/>
      <point x="94" y="1183"/>
      <point x="95" y="1049" type="curve" smooth="yes"/>
      <point x="96" y="949"/>
      <point x="151" y="858"/>
      <point x="300" y="784" type="curve"/>
      <point x="380" y="892" type="line"/>
      <point x="297" y="946"/>
      <point x="274" y="988"/>
      <point x="274" y="1034" type="curve" smooth="yes"/>
      <point x="274" y="1101"/>
      <point x="329" y="1140"/>
      <point x="423" y="1140" type="curve" smooth="yes"/>
      <point x="544" y="1140"/>
      <point x="596" y="1059"/>
      <point x="596" y="960" type="curve" smooth="yes"/>
      <point x="596" y="784"/>
      <point x="447" y="649"/>
      <point x="195" y="551" type="curve"/>
      <point x="319" y="437" type="line"/>
      <point x="596" y="537"/>
      <point x="781" y="712"/>
      <point x="781" y="963" type="curve" smooth="yes"/>
      <point x="781" y="1139"/>
      <point x="669" y="1298"/>
      <point x="419" y="1298" type="curve" smooth="yes"/>
    </contour>
    <contour>
      <point x="215" y="531" type="line"/>
      <point x="644" y="-24" type="line"/>
      <point x="790" y="99" type="line"/>
      <point x="343" y="581" type="line"/>
    </contour>
    <contour>
      <point x="128" y="703" type="line"/>
      <point x="90" y="634"/>
      <point x="79" y="577"/>
      <point x="79" y="535" type="curve" smooth="yes"/>
      <point x="78" y="442"/>
      <point x="146" y="405"/>
      <point x="202" y="405" type="curve" smooth="yes"/>
      <point x="266" y="405"/>
      <point x="316" y="425"/>
      <point x="420" y="477" type="curve"/>
      <point x="401" y="519" type="line"/>
      <point x="243" y="703" type="line"/>
    </contour>
    <contour>
      <point x="989" y="1197" type="line"/>
      <point x="989" y="0" type="line"/>
      <point x="1179" y="0" type="line"/>
      <point x="1179" y="1197" type="line"/>
    </contour>
    <contour>
      <point x="837" y="1277" type="line"/>
      <point x="837" y="1114" type="line"/>
      <point x="1382" y="1114" type="line"/>
      <point x="1382" y="1277" type="line"/>
    </contour>
    <contour>
      <point x="260" y="72" type="move" name="nukta"/>
    </contour>
    <contour>
      <point x="1085" y="1167" type="move" name="top"/>
    </contour>
    <contour>
      <point x="765" y="1167" type="move" name="topcandrabindu"/>
    </contour>
    <contour>
      <point x="1085" y="27" type="move" name="bottom"/>
    </contour>
  </outline>
</glyph>
<glyph name="rVocalicMatra-deva" format="1">
  <advance width="540"/>
  <unicode hex="0943"/>
  <outline>
    <contour>
      <point x="96" y="82"/>
      <point x="-28" y="-22"/>
      <point x="-28" y="-179" type="curve"/>
      <point x="-28" y="-322"/>
      <point x="97" y="-416"/>
      <point x="245" y="-416" type="curve" smooth="yes"/>
      <point x="353" y="-416"/>
      <point x="454" y="-377"/>
      <point x="531" y="-320" type="curve"/>
      <point x="468" y="-193" type="line"/>
      <point x="405" y="-234"/>
      <point x="330" y="-267"/>
      <point x="259" y="-267" type="curve" smooth="yes"/>
      <point x="183" y="-267"/>
      <point x="144" y="-231"/>
      <point x="144" y="-173" type="curve" smooth="yes"/>
      <point x="144" y="-101"/>
      <point x="192" y="-50"/>
      <point x="344" y="0" type="curve"/>
      <point x="280" y="126" type="line"/>
    </contour>
    <contour>
      <point x="68" y="7" type="move" name="_bottom"/>
    </contour>
  </outline>
</glyph>
<glyph name="prishthaMatraE-deva" format="1">
  <advance width="564"/>
  <unicode hex="094E"/>
  <outline>
    <contour>
      <point x="187" y="1204" type="line"/>
      <point x="187" y="0" type="line"/>
      <point x="376" y="0" type="line"/>
      <point x="376" y="1204" type="line"/>
    </contour>
    <contour>
      <point x="187" y="1277" type="line"/>
      <point x="187" y="1114" type="line"/>
      <point x="581" y="1114" type="line"/>
      <point x="581" y="1277" type="line"/>
    </contour>
    <contour>
      <point x="282" y="1167" type="move" name="top"/>
    </contour>
    <contour>
      <point x="282" y="27" type="move" name="bottom"/>
    </contour>
  </outline>
</glyph>
<glyph name="rha-deva" format="1">
  <advance width="1079"/>
  <unicode hex="095D"/>
  <outline>
    <component base="ddha-deva"/>
    <component base="nukta-deva" xOffset="-248" yOffset="45"/>
    <contour>
      <point x="198" y="292" type="move" name="top"/>
    </contour>
    <contour>
      <point x="171" y="7" type="move" name="bottom"/>
    </contour>
    <contour>
      <point x="133" y="292" type="move" name="topcandrabindu"/>
    </contour>
  </outline>
</glyph>
<glyph name="fa-deva" format="1">
  <advance width="1597"/>
  <unicode hex="095E"/>
  <outline>
    <component base="pha-deva"/>
    <component base="nukta-deva" xOffset="82" yOffset="61"/>
    <contour>
      <point x="205" y="292" type="move" name="top"/>
    </contour>
    <contour>
      <point x="206" y="7" type="move" name="bottom"/>
    </contour>
  </outline>
</glyph>
<glyph name="zero-deva" format="1">
  <advance width="973"/>
  <unicode hex="0966"/>
  <outline>
    <contour>
      <point x="227" y="1066"/>
      <point x="92" y="922"/>
      <point x="92" y="644" type="curve" smooth="yes"/>
      <point x="92" y="366"/>
      <point x="227" y="220"/>
      <point x="486" y="220" type="curve" smooth="yes"/>
      <point x="746" y="220"/>
      <point x="881" y="365"/>
      <point x="881" y="643" type="curve" smooth="yes"/>
      <point x="881" y="921"/>
      <point x="746" y="1066"/>
      <point x="486" y="1066" type="curve" smooth="yes"/>
    </contour>
    <contour>
      <point x="622" y="901"/>
      <point x="693" y="813"/>
      <point x="693" y="638" type="curve" smooth="yes"/>
      <point x="693" y="470"/>
      <point x="622" y="386"/>
      <point x="485" y="386" type="curve" smooth="yes"/>
      <point x="350" y="386"/>
      <point x="280" y="470"/>
      <point x="280" y="638" type="curve" smooth="yes"/>
      <point x="280" y="813"/>
      <point x="350" y="901"/>
      <point x="485" y="901" type="curve" smooth="yes"/>
    </contour>
  </outline>
</glyph>
<glyph name="three-deva" format="1">
  <advance width="900"/>
  <unicode hex="0969"/>
  <outline>
    <contour>
      <point x="814" y="588"/>
      <point x="749" y="699"/>
      <point x="597" y="752" type="curve"/>
      <point x="603" y="720" type="line"/>
      <point x="702" y="782"/>
      <point x="751" y="878"/>
      <point x="751" y="986" type="curve" smooth="yes"/>
      <point x="751" y="1197"/>
      <point x="595" y="1300"/>
      <point x="410" y="1300" type="curve" smooth="yes"/>
      <point x="302" y="1300"/>
      <point x="186" y="1276"/>
      <point x="93" y="1234" type="curve"/>
      <point x="146" y="1079" type="line"/>
      <point x="216" y="1109"/>
      <point x="306" y="1131"/>
      <point x="388" y="1131" type="curve" smooth="yes"/>
      <point x="488" y="1131"/>
      <point x="564" y="1097"/>
      <point x="564" y="994" type="curve" smooth="yes"/>
      <point x="564" y="910"/>
      <point x="513" y="812"/>
      <point x="237" y="811" type="curve"/>
      <point x="249" y="654" type="line"/>
      <point x="264" y="651"/>
      <point x="283" y="650"/>
      <point x="312" y="650" type="curve" smooth="yes"/>
      <point x="398" y="650"/>
      <point x="470" y="662"/>
      <point x="530" y="684" type="curve"/>
      <point x="473" y="693" type="line"/>
      <point x="575" y="644"/>
      <point x="627" y="573"/>
      <point x="627" y="481" type="curve" smooth="yes"/>
      <point x="627" y="374"/>
      <point x="527" y="304"/>
      <point x="388" y="304" type="curve" smooth="yes"/>
      <point x="353" y="304"/>
      <point x="318" y="308"/>
      <point x="289" y="313" type="curve"/>
      <point x="345" y="274" type="line"/>
      <point x="200" y="449" type="line"/>
      <point x="86" y="449" type="line"/>
      <point x="49" y="376"/>
      <point x="37" y="335"/>
      <point x="37" y="300" type="curve" smooth="yes"/>
      <point x="38" y="213"/>
      <point x="112" y="161"/>
      <point x="264" y="142" type="curve"/>
      <point x="483" y="-161" type="line"/>
      <point x="614" y="-49" type="line"/>
      <point x="400" y="169" type="line"/>
      <point x="389" y="137" type="line"/>
      <point x="414" y="139"/>
      <point x="435" y="138"/>
      <point x="464" y="142" type="curve" smooth="yes"/>
      <point x="648" y="161"/>
      <point x="814" y="272"/>
      <point x="814" y="453" type="curve" smooth="yes"/>
    </contour>
  </outline>
</glyph>
<glyph name="nine-deva" format="1">
  <advance width="844"/>
  <unicode hex="096F"/>
  <outline>
    <contour>
      <point x="215" y="1296"/>
      <point x="73" y="1176"/>
      <point x="73" y="960" type="curve" smooth="yes"/>
      <point x="73" y="783"/>
      <point x="159" y="663"/>
      <point x="325" y="463" type="curve" smooth="yes"/>
      <point x="507" y="242"/>
      <point x="602" y="155"/>
      <point x="602" y="94" type="curve" smooth="yes"/>
      <point x="602" y="26"/>
      <point x="500" y="-8"/>
      <point x="395" y="-29" type="curve"/>
      <point x="469" y="-186" type="line"/>
      <point x="652" y="-159"/>
      <point x="788" y="-40"/>
      <point x="788" y="88" type="curve" smooth="yes"/>
      <point x="788" y="227"/>
      <point x="699" y="299"/>
      <point x="479" y="560" type="curve" smooth="yes"/>
      <point x="330" y="738"/>
      <point x="262" y="815"/>
      <point x="260" y="944" type="curve" smooth="yes"/>
      <point x="259" y="1081"/>
      <point x="334" y="1130"/>
      <point x="436" y="1130" type="curve" smooth="yes"/>
      <point x="528" y="1130"/>
      <point x="591" y="1079"/>
      <point x="593" y="980" type="curve" smooth="yes"/>
      <point x="596" y="787"/>
      <point x="419" y="730"/>
      <point x="273" y="728" type="curve"/>
      <point x="329" y="602" type="line"/>
      <point x="528" y="602"/>
      <point x="780" y="707"/>
      <point x="780" y="987" type="curve" smooth="yes"/>
      <point x="780" y="1183"/>
      <point x="638" y="1296"/>
      <point x="430" y="1296" type="curve" smooth="yes"/>
    </contour>
  </outline>
</glyph>
<glyph name="abbreviation-deva" format="1">
  <advance width="966"/>
  <unicode hex="0970"/>
  <outline>
    <contour>
      <point x="376" y="399"/>
      <point x="317" y="444"/>
      <point x="318" y="566" type="curve" smooth="yes"/>
      <point x="318" y="700"/>
      <point x="389" y="741"/>
      <point x="486" y="741" type="curve" smooth="yes"/>
      <point x="590" y="741"/>
      <point x="649" y="695"/>
      <point x="649" y="574" type="curve" smooth="yes"/>
      <point x="649" y="441"/>
      <point x="578" y="399"/>
      <point x="480" y="399" type="curve"/>
    </contour>
    <contour>
      <point x="323" y="893"/>
      <point x="143" y="822"/>
      <point x="143" y="584" type="curve" smooth="yes"/>
      <point x="143" y="381"/>
      <point x="270" y="247"/>
      <point x="486" y="247" type="curve" smooth="yes"/>
      <point x="642" y="247"/>
      <point x="823" y="318"/>
      <point x="823" y="556" type="curve" smooth="yes"/>
      <point x="823" y="760"/>
      <point x="694" y="893"/>
      <point x="480" y="893" type="curve" smooth="yes"/>
    </contour>
  </outline>
</glyph>
<glyph name="rupee" format="1">
  <advance width="1224"/>
  <unicode hex="20A8"/>
  <outline>
    <contour>
      <point x="517" y="1180" type="line"/>
      <point x="517" y="754" type="line" smooth="yes"/>
      <point x="517" y="683"/>
      <point x="494" y="650"/>
      <point x="435" y="650" type="curve" smooth="yes"/>
      <point x="401" y="650"/>
      <point x="367" y="662"/>
      <point x="328" y="693" type="curve"/>
      <point x="200" y="594" type="line"/>
      <point x="622" y="-38" type="line"/>
      <point x="773" y="72" type="line"/>
      <point x="426" y="536" type="line"/>
      <point x="410" y="528" type="line"/>
      <point x="427" y="513"/>
      <point x="462" y="505"/>
      <point x="494" y="505" type="curve" smooth="yes"/>
      <point x="610" y="505"/>
      <point x="698" y="588"/>
      <point x="698" y="766" type="curve" smooth="yes"/>
      <point x="698" y="1180" type="line"/>
    </contour>
    <contour>
      <point x="138" y="1277" type="line"/>
      <point x="138" y="1114" type="line"/>
      <point x="901" y="1114" type="line"/>
      <point x="901" y="1277" type="line"/>
    </contour>
    <contour>
      <point x="138" y="970" type="line"/>
      <point x="138" y="807" type="line"/>
      <point x="901" y="807" type="line"/>
      <point x="901" y="970" type="line"/>
    </contour>
    <contour>
      <point x="443" y="1167" type="move" name="top"/>
    </contour>
    <contour>
      <point x="363" y="27" type="move" name="bottom"/>
    </contour>
  </outline>
</glyph>
<glyph name="bh_la-deva.loclMAR" format="1">
  <advance width="1243"/>
  <outline>
    <contour>
      <point x="170" y="1298"/>
      <point x="122" y="1289"/>
      <point x="76" y="1272" type="curve"/>
      <point x="99" y="1114" type="line"/>
      <point x="131" y="1121"/>
      <point x="166" y="1128"/>
      <point x="199" y="1128" type="curve" smooth="yes"/>
      <point x="252" y="1129"/>
      <point x="283" y="1107"/>
      <point x="283" y="1037" type="curve" smooth="yes"/>
      <point x="283" y="577" type="line"/>
      <point x="472" y="577" type="line"/>
      <point x="472" y="1033" type="line" smooth="yes"/>
      <point x="472" y="1162"/>
      <point x="451" y="1298"/>
      <point x="234" y="1298" type="curve" smooth="yes"/>
    </contour>
    <contour>
      <point x="319" y="677" type="line"/>
      <point x="136" y="655" type="line"/>
      <point x="136" y="524" type="line"/>
      <point x="317" y="322" type="line"/>
      <point x="444" y="323"/>
      <point x="471" y="386"/>
      <point x="471" y="461" type="curve" smooth="yes"/>
      <point x="471" y="677" type="line"/>
    </contour>
    <contour>
      <point x="288" y="671" type="line"/>
      <point x="288" y="504" type="line"/>
      <point x="1012" y="504" type="line"/>
      <point x="1012" y="671" type="line"/>
    </contour>
    <contour>
      <point x="861" y="1211" type="line"/>
      <point x="861" y="28" type="line"/>
      <point x="1050" y="28" type="line"/>
      <point x="1050" y="1211" type="line"/>
    </contour>
    <contour>
      <point x="683" y="1277" type="line"/>
      <point x="683" y="1114" type="line"/>
      <point x="1260" y="1114" type="line"/>
      <point x="1260" y="1277" type="line"/>
    </contour>
    <component base="add" xOffset="105"/>
    <contour>
      <point x="955" y="1167" type="move" name="top"/>
    </contour>
    <contour>
      <point x="892" y="-482" type="move" name="bottom"/>
    </contour>
    <contour>
      <point x="680" y="1167" type="move" name="topcandrabindu"/>
    </contour>
  </outline>
</glyph>
<glyph name="c-deva" format="1">
  <advance width="746"/>
  <outline>
    <contour>
      <point x="474" y="802" type="line"/>
      <point x="283" y="774"/>
      <point x="192" y="662"/>
      <point x="192" y="514" type="curve"/>
      <point x="192" y="337"/>
      <point x="322" y="212"/>
      <point x="561" y="212" type="curve" smooth="yes"/>
      <point x="752" y="212"/>
      <point x="893" y="303"/>
      <point x="983" y="411" type="curve"/>
      <point x="956" y="606" type="line"/>
      <point x="876" y="480"/>
      <point x="737" y="375"/>
      <point x="573" y="375" type="curve" smooth="yes"/>
      <point x="441" y="375"/>
      <point x="386" y="432"/>
      <point x="386" y="537" type="curve"/>
      <point x="386" y="657"/>
      <point x="473" y="736"/>
      <point x="654" y="746" type="curve"/>
      <point x="624" y="815" type="line"/>
    </contour>
    <contour>
      <point x="37" y="905" type="line"/>
      <point x="37" y="745" type="line"/>
      <point x="701" y="746" type="line"/>
      <point x="701" y="906" type="line"/>
    </contour>
    <contour>
      <point x="-18" y="1277" type="line"/>
      <point x="-18" y="1114" type="line"/>
      <point x="766" y="1114" type="line"/>
      <point x="766" y="1277" type="line"/>
    </contour>
    <contour>
      <point x="92" y="292" type="move" name="top"/>
    </contour>
    <contour>
      <point x="92" y="7" type="move" name="bottom"/>
    </contour>
  </outline>
</glyph>
<glyph name="ch_la-deva.loclMAR" format="1">
  <advance width="1335"/>
  <outline>
    <contour>
      <point x="775" y="1049"/>
      <point x="690" y="949"/>
      <point x="691" y="812" type="curve" smooth="yes"/>
      <point x="691" y="715"/>
      <point x="734" y="639"/>
      <point x="808" y="586" type="curve"/>
      <point x="909" y="670" type="line"/>
      <point x="876" y="712"/>
      <point x="863" y="747"/>
      <point x="863" y="790" type="curve" smooth="yes"/>
      <point x="863" y="857"/>
      <point x="902" y="903"/>
      <point x="969" y="903" type="curve" smooth="yes"/>
      <point x="1048" y="903"/>
      <point x="1093" y="851"/>
      <point x="1094" y="744" type="curve" smooth="yes"/>
      <point x="1094" y="570"/>
      <point x="864" y="405"/>
      <point x="561" y="405" type="curve" smooth="yes"/>
      <point x="345" y="405"/>
      <point x="281" y="481"/>
      <point x="281" y="561" type="curve" smooth="yes"/>
      <point x="281" y="682"/>
      <point x="397" y="707"/>
      <point x="560" y="712" type="curve"/>
      <point x="557" y="869" type="line"/>
      <point x="541" y="869"/>
      <point x="524" y="870"/>
      <point x="511" y="869" type="curve" smooth="yes"/>
      <point x="287" y="867"/>
      <point x="87" y="765"/>
      <point x="87" y="559" type="curve" smooth="yes"/>
      <point x="87" y="387"/>
      <point x="232" y="236"/>
      <point x="565" y="236" type="curve" smooth="yes"/>
      <point x="955" y="236"/>
      <point x="1268" y="468"/>
      <point x="1268" y="747" type="curve" smooth="yes"/>
      <point x="1268" y="950"/>
      <point x="1143" y="1050"/>
      <point x="965" y="1050" type="curve" smooth="yes"/>
    </contour>
    <contour>
      <point x="-18" y="1277" type="line"/>
      <point x="-18" y="1114" type="line"/>
      <point x="1352" y="1114" type="line"/>
      <point x="1352" y="1277" type="line"/>
    </contour>
    <contour>
      <point x="872" y="1243" type="line"/>
      <point x="872" y="964" type="line"/>
      <point x="1057" y="964" type="line"/>
      <point x="1057" y="1243" type="line"/>
    </contour>
    <contour>
      <point x="299" y="1228"/>
      <point x="77" y="1182"/>
      <point x="77" y="1001" type="curve" smooth="yes"/>
      <point x="77" y="903"/>
      <point x="144" y="789"/>
      <point x="365" y="719" type="curve"/>
      <point x="453" y="791" type="line"/>
      <point x="367" y="810"/>
      <point x="268" y="888"/>
      <point x="268" y="972" type="curve" smooth="yes"/>
      <point x="268" y="1079"/>
      <point x="351" y="1117"/>
      <point x="478" y="1118" type="curve"/>
      <point x="495" y="1234" type="line"/>
    </contour>
    <contour>
      <point x="872" y="414" type="line"/>
      <point x="872" y="89" type="line"/>
      <point x="1057" y="89" type="line"/>
      <point x="1057" y="414" type="line"/>
    </contour>
    <component base="add" xOffset="99" yOffset="-40"/>
    <contour>
      <point x="966" y="1167" type="move" name="top"/>
    </contour>
    <contour>
      <point x="886" y="-522" type="move" name="bottom"/>
    </contour>
    <contour>
      <point x="680" y="1167" type="move" name="topcandrabindu"/>
    </contour>
  </outline>
</glyph>
<glyph name="d-deva" format="1">
  <advance width="1031"/>
  <outline>
    <component base="da-deva"/>
    <component base="halant-deva" xOffset="432" yOffset="-14"/>
    <contour>
      <point x="128" y="292" type="move" name="top"/>
    </contour>
    <contour>
      <point x="128" y="7" type="move" name="bottom"/>
    </contour>
  </outline>
</glyph>
<glyph name="d_ba-deva" format="1">
  <advance width="1010"/>
  <outline>
    <contour>
      <point x="-18" y="1277" type="line"/>
      <point x="-18" y="1114" type="line"/>
      <point x="1027" y="1114" type="line"/>
      <point x="1027" y="1277" type="line"/>
    </contour>
    <contour>
      <point x="622" y="1145" type="line"/>
      <point x="622" y="846" type="line"/>
      <point x="742" y="874" type="line"/>
      <point x="661" y="898"/>
      <point x="595" y="906"/>
      <point x="542" y="906" type="curve" smooth="yes"/>
      <point x="199" y="906"/>
      <point x="65" y="746"/>
      <point x="65" y="503" type="curve" smooth="yes"/>
      <point x="65" y="251"/>
      <point x="220" y="76"/>
      <point x="548" y="76" type="curve" smooth="yes"/>
      <point x="656" y="76"/>
      <point x="744" y="89"/>
      <point x="826" y="144" type="curve" smooth="yes"/>
      <point x="887" y="184"/>
      <point x="924" y="262"/>
      <point x="924" y="324" type="curve" smooth="yes"/>
      <point x="924" y="424"/>
      <point x="829" y="497"/>
      <point x="717" y="527" type="curve"/>
      <point x="611" y="444" type="line"/>
      <point x="712" y="233" type="line"/>
      <point x="792" y="315" type="line"/>
      <point x="695" y="251"/>
      <point x="639" y="227"/>
      <point x="533" y="227" type="curve" smooth="yes"/>
      <point x="359" y="227"/>
      <point x="262" y="292"/>
      <point x="262" y="480" type="curve" smooth="yes"/>
      <point x="262" y="688"/>
      <point x="373" y="738"/>
      <point x="588" y="738" type="curve" smooth="yes"/>
      <point x="693" y="738"/>
      <point x="758" y="733"/>
      <point x="811" y="730" type="curve"/>
      <point x="811" y="1145" type="line"/>
    </contour>
    <contour>
      <point x="710" y="-76"/>
      <point x="588" y="-264"/>
      <point x="405" y="-264" type="curve" smooth="yes"/>
      <point x="325" y="-264"/>
      <point x="263" y="-220"/>
      <point x="263" y="-140" type="curve" smooth="yes"/>
      <point x="263" y="-24"/>
      <point x="378" y="45"/>
      <point x="460" y="90" type="curve"/>
      <point x="409" y="214" type="line"/>
      <point x="309" y="164"/>
      <point x="92" y="67"/>
      <point x="92" y="-134" type="curve" smooth="yes"/>
      <point x="92" y="-309"/>
      <point x="231" y="-411"/>
      <point x="417" y="-411" type="curve" smooth="yes"/>
      <point x="772" y="-411"/>
      <point x="864" y="-29"/>
      <point x="845" y="210" type="curve"/>
      <point x="732" y="272" type="line"/>
    </contour>
    <contour>
      <point x="275" y="40" type="line"/>
      <point x="646" y="-330" type="line"/>
      <point x="738" y="-230" type="line"/>
      <point x="367" y="140" type="line"/>
    </contour>
    <contour>
      <point x="748" y="215" type="line"/>
      <point x="935" y="-155" type="line"/>
      <point x="1069" y="-66" type="line"/>
      <point x="846" y="266" type="line"/>
    </contour>
    <contour>
      <point x="716" y="1167" type="move" name="top"/>
    </contour>
    <contour>
      <point x="890" y="-140" type="move" name="bottom"/>
    </contour>
  </outline>
</glyph>
<glyph name="dd_ya-deva" format="1">
  <advance width="2268"/>
  <outline>
    <contour>
      <point x="1106" y="937"/>
      <point x="883" y="718"/>
      <point x="816" y="450" type="curve"/>
      <point x="933" y="327" type="line"/>
      <point x="960" y="506"/>
      <point x="1124" y="783"/>
      <point x="1305" y="783" type="curve" smooth="yes"/>
      <point x="1368" y="783"/>
      <point x="1408" y="763"/>
      <point x="1408" y="722" type="curve" smooth="yes"/>
      <point x="1408" y="668"/>
      <point x="1335" y="619"/>
      <point x="1149" y="573" type="curve"/>
      <point x="1203" y="292"/>
      <point x="1368" y="135"/>
      <point x="1610" y="135" type="curve" smooth="yes"/>
      <point x="1740" y="135"/>
      <point x="1836" y="181"/>
      <point x="1919" y="268" type="curve"/>
      <point x="1929" y="500" type="line"/>
      <point x="1846" y="363"/>
      <point x="1713" y="308"/>
      <point x="1595" y="308" type="curve" smooth="yes"/>
      <point x="1465" y="308"/>
      <point x="1365" y="375"/>
      <point x="1329" y="527" type="curve"/>
      <point x="1311" y="456" type="line"/>
      <point x="1414" y="490"/>
      <point x="1581" y="558"/>
      <point x="1581" y="736" type="curve" smooth="yes"/>
      <point x="1581" y="883"/>
      <point x="1469" y="937"/>
      <point x="1337" y="937" type="curve" smooth="yes"/>
    </contour>
    <contour>
      <point x="1894" y="1141" type="line"/>
      <point x="1894" y="0" type="line"/>
      <point x="2083" y="0" type="line"/>
      <point x="2083" y="1141" type="line"/>
    </contour>
    <contour>
      <point x="996" y="1277" type="line"/>
      <point x="996" y="1114" type="line"/>
      <point x="2285" y="1114" type="line"/>
      <point x="2285" y="1277" type="line"/>
    </contour>
    <component base="dda-deva" xOffset="4"/>
    <contour>
      <point x="1988" y="1167" type="move" name="top"/>
    </contour>
    <contour>
      <point x="1988" y="27" type="move" name="bottom"/>
    </contour>
    <contour>
      <point x="1253" y="1167" type="move" name="topcandrabindu"/>
    </contour>
  </outline>
</glyph>
<glyph name="f-deva" format="1">
  <advance width="1206"/>
  <outline>
    <component base="ph-deva"/>
    <component base="nukta-deva" xOffset="172" yOffset="63"/>
    <contour>
      <point x="157" y="292" type="move" name="top"/>
    </contour>
    <contour>
      <point x="157" y="7" type="move" name="bottom"/>
    </contour>
  </outline>
</glyph>
<glyph name="jh-deva" format="1">
  <advance width="1060"/>
  <outline>
    <contour>
      <point x="1134" y="536"/>
      <point x="1004" y="498"/>
      <point x="819" y="496" type="curve"/>
      <point x="887" y="368" type="line"/>
      <point x="1022" y="349"/>
      <point x="1182" y="381"/>
      <point x="1315" y="470" type="curve"/>
      <point x="1285" y="636" type="line"/>
    </contour>
    <contour>
      <point x="895" y="1277" type="line"/>
      <point x="895" y="1114" type="line"/>
      <point x="1076" y="1114" type="line"/>
      <point x="1076" y="1277" type="line"/>
    </contour>
    <component base="i-deva"/>
    <contour>
      <point x="128" y="292" type="move" name="top"/>
    </contour>
    <contour>
      <point x="128" y="7" type="move" name="bottom"/>
    </contour>
  </outline>
</glyph>
<glyph name="kh_la-deva.loclMAR" format="1">
  <advance width="1614"/>
  <outline>
    <contour>
      <point x="-18" y="1277" type="line"/>
      <point x="-18" y="1114" type="line"/>
      <point x="1631" y="1114" type="line"/>
      <point x="1631" y="1277" type="line"/>
    </contour>
    <contour>
      <point x="359" y="1172" type="line"/>
      <point x="359" y="849" type="line" smooth="yes"/>
      <point x="359" y="764"/>
      <point x="336" y="724"/>
      <point x="274" y="724" type="curve" smooth="yes"/>
      <point x="245" y="724"/>
      <point x="212" y="734"/>
      <point x="172" y="768" type="curve"/>
      <point x="55" y="686" type="line"/>
      <point x="232" y="234"/>
      <point x="490" y="72"/>
      <point x="766" y="72" type="curve" smooth="yes"/>
      <point x="845" y="72"/>
      <point x="936" y="83"/>
      <point x="1024" y="112" type="curve"/>
      <point x="997" y="263" type="line"/>
      <point x="934" y="245"/>
      <point x="861" y="232"/>
      <point x="780" y="232" type="curve" smooth="yes"/>
      <point x="573" y="232"/>
      <point x="377" y="348"/>
      <point x="268" y="626" type="curve"/>
      <point x="248" y="592" type="line"/>
      <point x="271" y="583"/>
      <point x="301" y="571"/>
      <point x="345" y="571" type="curve" smooth="yes"/>
      <point x="435" y="571"/>
      <point x="548" y="621"/>
      <point x="548" y="839" type="curve" smooth="yes"/>
      <point x="548" y="1172" type="line"/>
    </contour>
    <contour>
      <point x="796" y="964"/>
      <point x="661" y="859"/>
      <point x="661" y="657" type="curve" smooth="yes"/>
      <point x="661" y="486"/>
      <point x="754" y="340"/>
      <point x="968" y="340" type="curve" smooth="yes"/>
      <point x="1103" y="340"/>
      <point x="1240" y="388"/>
      <point x="1313" y="498" type="curve"/>
      <point x="1279" y="639" type="line"/>
      <point x="1205" y="539"/>
      <point x="1106" y="495"/>
      <point x="997" y="495" type="curve" smooth="yes"/>
      <point x="899" y="495"/>
      <point x="849" y="540"/>
      <point x="849" y="647" type="curve" smooth="yes"/>
      <point x="849" y="743"/>
      <point x="894" y="806"/>
      <point x="1031" y="806" type="curve" smooth="yes"/>
      <point x="1117" y="806"/>
      <point x="1210" y="795"/>
      <point x="1315" y="760" type="curve"/>
      <point x="1311" y="867" type="line"/>
      <point x="1252" y="922"/>
      <point x="1135" y="964"/>
      <point x="992" y="964" type="curve" smooth="yes"/>
    </contour>
    <contour>
      <point x="1240" y="1181" type="line"/>
      <point x="1240" y="-100" type="line"/>
      <point x="1429" y="-100" type="line"/>
      <point x="1429" y="1181" type="line"/>
    </contour>
    <component base="add" xOffset="421" yOffset="-178"/>
    <contour>
      <point x="1335" y="1167" type="move" name="top"/>
    </contour>
    <contour>
      <point x="1209" y="-659" type="move" name="bottom"/>
    </contour>
    <contour>
      <point x="890" y="1167" type="move" name="topcandrabindu"/>
    </contour>
  </outline>
</glyph>
<glyph name="ll-deva" format="1">
  <advance width="1478"/>
  <outline>
    <contour>
      <point x="187" y="942"/>
      <point x="62" y="805"/>
      <point x="62" y="542" type="curve" smooth="yes"/>
      <point x="62" y="289"/>
      <point x="192" y="144"/>
      <point x="391" y="144" type="curve" smooth="yes"/>
      <point x="566" y="144"/>
      <point x="646" y="213"/>
      <point x="799" y="450" type="curve" smooth="yes"/>
      <point x="944" y="680"/>
      <point x="991" y="762"/>
      <point x="1090" y="762" type="curve" smooth="yes"/>
      <point x="1182" y="762"/>
      <point x="1224" y="689"/>
      <point x="1224" y="557" type="curve" smooth="yes"/>
      <point x="1224" y="402"/>
      <point x="1160" y="321"/>
      <point x="1040" y="321" type="curve" smooth="yes"/>
      <point x="934" y="321"/>
      <point x="867" y="385"/>
      <point x="800" y="477" type="curve"/>
      <point x="707" y="356" type="line"/>
      <point x="804" y="223"/>
      <point x="895" y="146"/>
      <point x="1069" y="146" type="curve" smooth="yes"/>
      <point x="1293" y="146"/>
      <point x="1416" y="286"/>
      <point x="1416" y="555" type="curve" smooth="yes"/>
      <point x="1416" y="823"/>
      <point x="1275" y="941"/>
      <point x="1097" y="941" type="curve" smooth="yes"/>
      <point x="911" y="941"/>
      <point x="834" y="854"/>
      <point x="710" y="667" type="curve" smooth="yes"/>
      <point x="604" y="494"/>
      <point x="520" y="323"/>
      <point x="393" y="323" type="curve" smooth="yes"/>
      <point x="294" y="323"/>
      <point x="254" y="384"/>
      <point x="254" y="540" type="curve" smooth="yes"/>
      <point x="254" y="689"/>
      <point x="316" y="767"/>
      <point x="436" y="767" type="curve" smooth="yes"/>
      <point x="552" y="767"/>
      <point x="635" y="697"/>
      <point x="704" y="598" type="curve"/>
      <point x="778" y="721" type="line"/>
      <point x="682" y="892"/>
      <point x="566" y="942"/>
      <point x="422" y="942" type="curve" smooth="yes"/>
    </contour>
    <contour>
      <point x="-18" y="1277" type="line"/>
      <point x="-18" y="1114" type="line"/>
      <point x="1495" y="1114" type="line"/>
      <point x="1495" y="1277" type="line"/>
    </contour>
    <contour>
      <point x="191" y="292" type="move" name="top"/>
    </contour>
    <contour>
      <point x="191" y="7" type="move" name="bottom"/>
    </contour>
  </outline>
</glyph>
<glyph name="n-deva" format="1">
  <advance width="577"/>
  <outline>
    <contour>
      <point x="46" y="769" type="line"/>
      <point x="46" y="618" type="line"/>
      <point x="196" y="400" type="line"/>
      <point x="330" y="400"/>
      <point x="351" y="476"/>
      <point x="351" y="570" type="curve" smooth="yes"/>
      <point x="351" y="769" type="line"/>
    </contour>
    <contour>
      <point x="174" y="769" type="line"/>
      <point x="174" y="602" type="line"/>
      <point x="791" y="602" type="line"/>
      <point x="791" y="769" type="line"/>
    </contour>
    <contour>
      <point x="-18" y="1277" type="line"/>
      <point x="-18" y="1114" type="line"/>
      <point x="602" y="1114" type="line"/>
      <point x="602" y="1277" type="line"/>
    </contour>
    <contour>
      <point x="74" y="292" type="move" name="top"/>
    </contour>
    <contour>
      <point x="74" y="7" type="move" name="bottom"/>
    </contour>
  </outline>
</glyph>
<glyph name="na_ra-deva" format="1">
  <advance width="1098"/>
  <outline>
    <contour>
      <point x="887" y="424" type="line"/>
      <point x="773" y="528" type="line"/>
      <point x="195" y="106" type="line"/>
      <point x="309" y="-30" type="line"/>
    </contour>
    <component base="na-deva"/>
    <contour>
      <point x="822" y="1167" type="move" name="top"/>
    </contour>
    <contour>
      <point x="822" y="27" type="move" name="bottom"/>
    </contour>
    <contour>
      <point x="547" y="1167" type="move" name="topcandrabindu"/>
    </contour>
  </outline>
</glyph>
<glyph name="ng-deva" format="1">
  <advance width="1137"/>
  <outline>
    <contour>
      <point x="847" y="1277" type="line"/>
      <point x="847" y="1114" type="line"/>
      <point x="1154" y="1114" type="line"/>
      <point x="1154" y="1277" type="line"/>
    </contour>
    <component base="dda-deva"/>
    <component base="halant-deva" xOffset="432" yOffset="-87"/>
    <component base="nukta-deva" xOffset="815" yOffset="479"/>
    <contour>
      <point x="136" y="292" type="move" name="top"/>
    </contour>
    <contour>
      <point x="136" y="7" type="move" name="bottom"/>
    </contour>
  </outline>
</glyph>
<glyph name="ng_ga-deva" format="1">
  <advance width="1219"/>
  <outline>
    <contour>
      <point x="434" y="976" type="line" smooth="yes"/>
      <point x="251" y="976"/>
      <point x="170" y="917"/>
      <point x="170" y="787" type="curve" smooth="yes"/>
      <point x="170" y="677"/>
      <point x="229" y="559"/>
      <point x="296" y="504" type="curve"/>
      <point x="327" y="480"/>
      <point x="346" y="477"/>
      <point x="369" y="479" type="curve" smooth="yes"/>
      <point x="411" y="483"/>
      <point x="569" y="503"/>
      <point x="677" y="503" type="curve" smooth="yes"/>
      <point x="792" y="503"/>
      <point x="824" y="479"/>
      <point x="824" y="417" type="curve" smooth="yes"/>
      <point x="824" y="330"/>
      <point x="762" y="291"/>
      <point x="591" y="291" type="curve" smooth="yes"/>
      <point x="390" y="291"/>
      <point x="296" y="347"/>
      <point x="184" y="460" type="curve"/>
      <point x="90" y="368" type="line"/>
      <point x="232" y="200"/>
      <point x="402" y="138"/>
      <point x="598" y="136" type="curve" smooth="yes"/>
      <point x="806" y="136"/>
      <point x="998" y="207"/>
      <point x="998" y="433" type="curve" smooth="yes"/>
      <point x="998" y="638"/>
      <point x="839" y="666"/>
      <point x="658" y="664" type="curve" smooth="yes"/>
      <point x="547" y="662"/>
      <point x="438" y="650"/>
      <point x="347" y="635" type="curve"/>
      <point x="367" y="621" type="line"/>
      <point x="356" y="628"/>
      <point x="334" y="682"/>
      <point x="334" y="735" type="curve" smooth="yes"/>
      <point x="334" y="798"/>
      <point x="363" y="816"/>
      <point x="482" y="816" type="curve" smooth="yes"/>
      <point x="816" y="816" type="line"/>
      <point x="795" y="976" type="line"/>
    </contour>
    <contour>
      <point x="333" y="6" type="line"/>
      <point x="165" y="-15" type="line"/>
      <point x="165" y="-138" type="line"/>
      <point x="333" y="-323" type="line"/>
      <point x="460" y="-322"/>
      <point x="478" y="-260"/>
      <point x="478" y="-203" type="curve" smooth="yes"/>
      <point x="478" y="6" type="line"/>
    </contour>
    <contour>
      <point x="301" y="260" type="line"/>
      <point x="301" y="-67" type="line"/>
      <point x="478" y="-72" type="line"/>
      <point x="478" y="260" type="line"/>
    </contour>
    <contour>
      <point x="697" y="248" type="line"/>
      <point x="697" y="-496" type="line"/>
      <point x="878" y="-496" type="line"/>
      <point x="878" y="248" type="line"/>
    </contour>
    <contour>
      <point x="-18" y="1277" type="line"/>
      <point x="-18" y="1113" type="line"/>
      <point x="1236" y="1113" type="line"/>
      <point x="1236" y="1277" type="line"/>
    </contour>
    <contour>
      <point x="701" y="1226" type="line"/>
      <point x="701" y="816" type="line"/>
      <point x="888" y="816" type="line"/>
      <point x="888" y="1226" type="line"/>
    </contour>
    <contour>
      <point x="980" y="818"/>
      <point x="950" y="789"/>
      <point x="950" y="720" type="curve" smooth="yes"/>
      <point x="950" y="652"/>
      <point x="980" y="623"/>
      <point x="1049" y="623" type="curve" smooth="yes"/>
      <point x="1118" y="623"/>
      <point x="1147" y="652"/>
      <point x="1147" y="720" type="curve" smooth="yes"/>
      <point x="1147" y="789"/>
      <point x="1118" y="818"/>
      <point x="1049" y="818" type="curve" smooth="yes"/>
    </contour>
    <contour>
      <point x="794" y="1167" type="move" name="top"/>
    </contour>
    <contour>
      <point x="788" y="-465" type="move" name="bottom"/>
    </contour>
    <contour>
      <point x="605" y="1167" type="move" name="topcandrabindu"/>
    </contour>
  </outline>
</glyph>
<glyph name="pa_ra-deva" format="1">
  <advance width="1148"/>
  <outline>
    <contour>
      <point x="830" y="425" type="line"/>
      <point x="722" y="520" type="line"/>
      <point x="133" y="92" type="line"/>
      <point x="247" y="-45" type="line"/>
    </contour>
    <component base="pa-deva"/>
    <contour>
      <point x="880" y="1167" type="move" name="top"/>
    </contour>
    <contour>
      <point x="903" y="27" type="move" name="bottom"/>
    </contour>
  </outline>
</glyph>
<glyph name="r-deva" format="1">
  <advance width="724"/>
  <outline>
    <component base="ra-deva"/>
    <component base="halant-deva" xOffset="373" yOffset="1"/>
    <contour>
      <point x="76" y="292" type="move" name="top"/>
    </contour>
    <contour>
      <point x="76" y="7" type="move" name="bottom"/>
    </contour>
  </outline>
</glyph>
<glyph name="rr-deva" format="1">
  <advance width="724"/>
  <outline>
    <component base="rra-deva"/>
    <contour>
      <point x="76" y="292" type="move" name="top"/>
    </contour>
    <contour>
      <point x="76" y="7" type="move" name="bottom"/>
    </contour>
  </outline>
</glyph>
<glyph name="sh_na-deva" format="1">
  <advance width="1375"/>
  <outline>
    <contour>
      <point x="279" y="1310"/>
      <point x="150" y="1210"/>
      <point x="150" y="1034" type="curve" smooth="yes"/>
      <point x="150" y="931"/>
      <point x="192" y="830"/>
      <point x="345" y="728" type="curve"/>
      <point x="510" y="802" type="line"/>
      <point x="365" y="883"/>
      <point x="329" y="957"/>
      <point x="329" y="1022" type="curve" smooth="yes"/>
      <point x="329" y="1104"/>
      <point x="376" y="1154"/>
      <point x="487" y="1154" type="curve" smooth="yes"/>
      <point x="585" y="1154"/>
      <point x="637" y="1108"/>
      <point x="637" y="1024" type="curve" smooth="yes"/>
      <point x="637" y="937"/>
      <point x="578" y="875"/>
      <point x="437" y="789" type="curve"/>
      <point x="42" y="568" type="line"/>
      <point x="126" y="428" type="line"/>
      <point x="571" y="689" type="line"/>
      <point x="725" y="780"/>
      <point x="823" y="885"/>
      <point x="823" y="1034" type="curve" smooth="yes"/>
      <point x="823" y="1219"/>
      <point x="688" y="1310"/>
      <point x="486" y="1310" type="curve" smooth="yes"/>
    </contour>
    <contour>
      <point x="349" y="148" type="line"/>
      <point x="429" y="30" type="line"/>
      <point x="674" y="-69" type="line"/>
      <point x="772" y="-4"/>
      <point x="749" y="73"/>
      <point x="696" y="151" type="curve" smooth="yes"/>
      <point x="677" y="179" type="line"/>
      <point x="1084" y="458" type="line"/>
      <point x="1005" y="587" type="line"/>
    </contour>
    <contour>
      <point x="421" y="677" type="line"/>
      <point x="574" y="582"/>
      <point x="723" y="538"/>
      <point x="877" y="533" type="curve" smooth="yes"/>
      <point x="959" y="527"/>
      <point x="1037" y="531"/>
      <point x="1148" y="546" type="curve"/>
      <point x="1142" y="704" type="line"/>
      <point x="1062" y="689"/>
      <point x="977" y="682"/>
      <point x="891" y="687" type="curve" smooth="yes"/>
      <point x="777" y="692"/>
      <point x="662" y="716"/>
      <point x="561" y="769" type="curve"/>
    </contour>
    <contour>
      <point x="1001" y="1204" type="line"/>
      <point x="1001" y="0" type="line"/>
      <point x="1190" y="0" type="line"/>
      <point x="1190" y="1204" type="line"/>
    </contour>
    <contour>
      <point x="882" y="1277" type="line"/>
      <point x="882" y="1114" type="line"/>
      <point x="1392" y="1114" type="line"/>
      <point x="1392" y="1277" type="line"/>
    </contour>
    <contour>
      <point x="1096" y="1167" type="move" name="top"/>
    </contour>
    <contour>
      <point x="1096" y="27" type="move" name="bottom"/>
    </contour>
    <contour>
      <point x="817" y="1167" type="move" name="topcandrabindu"/>
    </contour>
  </outline>
</glyph>
<glyph name="ssa_ra-deva" format="1">
  <advance width="1164"/>
  <outline>
    <contour>
      <point x="857" y="425" type="line"/>
      <point x="749" y="519" type="line"/>
      <point x="142" y="93" type="line"/>
      <point x="252" y="-45" type="line"/>
    </contour>
    <component base="ssa-deva"/>
    <contour>
      <point x="897" y="1167" type="move" name="top"/>
    </contour>
    <contour>
      <point x="897" y="27" type="move" name="bottom"/>
    </contour>
  </outline>
</glyph>
